<?xml version="1.0" encoding="utf-8"?>
<!-- Generator: Adobe Illustrator 25.2.3, SVG Export Plug-In . SVG Version: 6.00 Build 0)  -->
<svg version="1.1" id="Capa_1" xmlns="http://www.w3.org/2000/svg" xmlns:xlink="http://www.w3.org/1999/xlink" x="0px" y="0px"
	 viewBox="0 0 800 800" style="enable-background:new 0 0 800 800;" xml:space="preserve">
<style type="text/css">
	.st0{fill:none;stroke:#DADADA;stroke-width:33.3333;stroke-linejoin:round;stroke-miterlimit:133.3333;}
</style>
<path class="st0" d="M400,66.7C215.8,66.7,66.7,215.8,66.7,400c0,147.5,95.4,272.1,227.9,316.2c16.7,2.9,22.9-7.1,22.9-15.8
	c0-7.9-0.4-34.2-0.4-62.1c-83.7,15.4-105.4-20.4-112.1-39.2c-3.8-9.6-20-39.2-34.2-47.1c-11.7-6.2-28.3-21.7-0.4-22.1
	c26.2-0.4,45,24.2,51.2,34.2c30,50.4,77.9,36.2,97.1,27.5c2.9-21.7,11.7-36.2,21.2-44.6c-74.2-8.3-151.7-37.1-151.7-164.6
	c0-36.2,12.9-66.2,34.2-89.6c-3.3-8.3-15-42.5,3.3-88.3c0,0,27.9-8.8,91.7,34.2c26.7-7.5,55-11.2,83.3-11.2
	c28.3,0,56.7,3.8,83.3,11.2c63.8-43.3,91.7-34.2,91.7-34.2c18.3,45.8,6.7,80,3.3,88.3c21.3,23.3,34.2,52.9,34.2,89.6
	c0,127.9-77.9,156.3-152.1,164.6c12.1,10.4,22.5,30.4,22.5,61.7c0,44.6-0.4,80.4-0.4,91.7c0,8.8,6.2,19.2,22.9,15.8
	c66.2-22.3,123.7-64.9,164.4-121.6c40.7-56.7,62.7-124.8,62.7-194.6C733.3,215.8,584.2,66.7,400,66.7z"/>
</svg>
