<?xml version="1.0" encoding="UTF-8"?>
<svg xmlns="http://www.w3.org/2000/svg" xmlns:xlink="http://www.w3.org/1999/xlink" width="820px" height="820px" viewBox="0 0 820 819" version="1.1">
<g id="surface1">
<path style="fill-rule:nonzero;fill:rgb(100%,97.647059%,97.647059%);fill-opacity:1;stroke-width:1.5;stroke-linecap:butt;stroke-linejoin:miter;stroke:rgb(95.686275%,26.27451%,21.176471%);stroke-opacity:1;stroke-miterlimit:4;" d="M 4.999962 8 C 4.999962 5.171589 4.999962 3.757326 5.878697 2.878663 C 6.757317 2 8.17157 2 10.999962 2 L 13.000038 2 C 15.82843 2 17.242569 2 18.121303 2.878663 C 19.000038 3.757326 19.000038 5.171589 19.000038 8 L 19.000038 16 C 19.000038 18.828411 19.000038 20.24256 18.121303 21.121337 C 17.242569 22 15.82843 22 13.000038 22 L 10.999962 22 C 8.17157 22 6.757317 22 5.878697 21.121337 C 4.999962 20.24256 4.999962 18.828411 4.999962 16 Z M 4.999962 8 " transform="matrix(34.166667,0,0,34.125,0,0)"/>
<path style="fill-rule:nonzero;fill:rgb(100%,97.647059%,97.647059%);fill-opacity:1;stroke-width:1.5;stroke-linecap:butt;stroke-linejoin:miter;stroke:rgb(95.686275%,26.27451%,21.176471%);stroke-opacity:1;stroke-miterlimit:4;" d="M 19.000038 19.5 C 19.464444 19.5 19.696761 19.5 19.89112 19.469208 C 20.960785 19.299794 21.799848 18.460852 21.969169 17.39114 C 22.000038 17.196772 22.000038 16.964515 22.000038 16.5 L 22.000038 7.5 C 22.000038 7.035485 22.000038 6.803228 21.969169 6.60886 C 21.799848 5.539148 20.960785 4.700206 19.89112 4.530792 C 19.696761 4.5 19.464444 4.5 19.000038 4.5 " transform="matrix(34.166667,0,0,34.125,0,0)"/>
<path style="fill-rule:nonzero;fill:rgb(100%,97.647059%,97.647059%);fill-opacity:1;stroke-width:1.5;stroke-linecap:butt;stroke-linejoin:miter;stroke:rgb(95.686275%,26.27451%,21.176471%);stroke-opacity:1;stroke-miterlimit:4;" d="M 4.999962 19.5 C 4.535556 19.5 4.303239 19.5 4.10888 19.469208 C 3.039215 19.299794 2.200267 18.460852 2.030831 17.39114 C 1.999962 17.196772 1.999962 16.964515 1.999962 16.5 L 1.999962 7.5 C 1.999962 7.035485 1.999962 6.803228 2.030831 6.60886 C 2.200267 5.539148 3.039215 4.700206 4.10888 4.530792 C 4.303239 4.5 4.535556 4.5 4.999962 4.5 " transform="matrix(34.166667,0,0,34.125,0,0)"/>
<path style="fill-rule:nonzero;fill:rgb(100%,97.647059%,97.647059%);fill-opacity:1;stroke-width:1.5;stroke-linecap:butt;stroke-linejoin:miter;stroke:rgb(95.686275%,26.27451%,21.176471%);stroke-opacity:1;stroke-miterlimit:4;" d="M 12 15 C 12 16.104625 11.104573 17 10.000038 17 C 8.895389 17 7.999962 16.104625 7.999962 15 C 7.999962 13.895375 8.895389 13 10.000038 13 C 11.104573 13 12 13.895375 12 15 Z M 12 15 L 12 10 " transform="matrix(34.166667,0,0,34.125,0,0)"/>
<path style="fill-rule:nonzero;fill:rgb(100%,97.647059%,97.647059%);fill-opacity:1;stroke-width:1.5;stroke-linecap:round;stroke-linejoin:miter;stroke:rgb(95.686275%,26.27451%,21.176471%);stroke-opacity:1;stroke-miterlimit:4;" d="M 14.058384 7.971039 L 12.741654 8.62935 C 12.559184 8.720582 12.46795 8.766255 12.392607 8.823832 C 12.197447 8.972985 12.064024 9.188874 12.017835 9.430174 C 12 9.523352 12 9.625343 12 9.829327 C 12 10.314904 12 10.557692 12.059794 10.722756 C 12.217797 11.158883 12.655107 11.429144 13.115854 11.375343 C 13.290206 11.355082 13.507431 11.246451 13.941654 11.029418 L 15.258384 10.370994 C 15.440854 10.279762 15.531974 10.234203 15.607431 10.176511 C 15.802591 10.027244 15.936014 9.81147 15.982203 9.570169 C 16.000038 9.476992 16.000038 9.375 16.000038 9.171016 C 16.000038 8.68544 16.000038 8.442651 15.940244 8.277587 C 15.782241 7.841461 15.344931 7.5712 14.88407 7.625 C 14.709832 7.645261 14.492607 7.753892 14.058384 7.971039 Z M 14.058384 7.971039 " transform="matrix(34.166667,0,0,34.125,0,0)"/>
</g>
</svg>
